<?xml version="1.0" standalone="no"?>
<!DOCTYPE svg PUBLIC "-//W3C//DTD SVG 20010904//EN"
 "http://www.w3.org/TR/2001/REC-SVG-20010904/DTD/svg10.dtd">
<svg version="1.0" xmlns="http://www.w3.org/2000/svg"
 width="260.000000pt" height="260.000000pt" viewBox="0 0 260.000000 260.000000"
 preserveAspectRatio="xMidYMid meet">
<metadata>
Created by potrace 1.11, written by Peter Selinger 2001-2013
</metadata>
<g transform="translate(0.000000,260.000000) scale(0.100000,-0.100000)"
fill="#000000" stroke="none">
<path d="M346 2454 c-14 -14 -16 -132 -16 -1149 0 -1017 2 -1135 16 -1149 13
-14 48 -16 228 -16 193 0 214 2 229 18 15 17 17 86 19 736 l3 718 490 -732
c270 -403 499 -739 510 -746 31 -22 417 -20 439 2 14 14 16 132 16 1149 0
1017 -2 1135 -16 1149 -13 14 -47 16 -213 16 -179 0 -199 -2 -214 -18 -15 -17
-17 -86 -19 -744 l-3 -725 -280 420 c-154 231 -286 426 -292 433 -7 7 -13 15
-13 17 0 9 -392 592 -413 615 -20 22 -25 22 -238 22 -184 0 -220 -2 -233 -16z"/>
</g>
</svg>
